<svg xmlns="http://www.w3.org/2000/svg" width="800" height="800" viewBox="0 0 800 800" fill="none">
  <defs>
    <linearGradient id="bg" x1="0" y1="0" x2="1" y2="1">
      <stop offset="0%" stop-color="#94A3B8"/><stop offset="100%" stop-color="#6C3FC5"/>
    </linearGradient>
  </defs>
  <rect width="800" height="800" rx="120" fill="url(#bg)"/>
  <!-- Large ghost -->
  <g transform="translate(400,380)">
    <path d="M-110,-140 C-110,-210 -60,-230 0,-230 C60,-230 110,-210 110,-140 L110,60 C110,85 70,95 55,75 C40,55 30,75 20,60 C10,45 0,65 -10,50 C-20,35 -30,55 -40,40 C-50,25 -60,45 -70,30 C-80,15 -90,35 -100,20 C-110,5 -110,-20 -110,-40 Z" fill="#FFFFFF"/>
    <ellipse cx="-40" cy="-100" rx="14" ry="20" fill="#6C3FC5"/>
    <ellipse cx="40" cy="-100" rx="14" ry="20" fill="#6C3FC5"/>
    <circle cx="-34" cy="-106" r="6" fill="#FFFFFF"/>
    <circle cx="46" cy="-106" r="6" fill="#FFFFFF"/>
  </g>
</svg>